<?xml version="1.0" encoding="UTF-8"?><svg id="_Слой_1" xmlns="http://www.w3.org/2000/svg" viewBox="0 0 1325.94 633.51"><defs><style>.cls-1{fill:#2b9456;}.cls-2{fill:#fff;}.cls-3{stroke-width:12px;}.cls-3,.cls-4{fill:#2a9556;stroke:#2a9556;stroke-miterlimit:10;}.cls-5{fill:#3dd077;}.cls-4{stroke-width:16px;}</style></defs><rect class="cls-5" y="-17.68" width="1368.83" height="884.68"/><path class="cls-2" d="m793.52,379.86h25.37c30.5-.03,55.2-24.78,55.17-55.28-.03-28.7-22.03-52.59-50.62-54.98,9.1-33.15-10.4-67.4-43.54-76.5-14.66-4.03-30.29-2.54-43.94,4.17-30.26-49.93-95.27-65.87-145.2-35.61-31.32,18.98-50.58,52.81-50.92,89.43v4.07h0c-34.45-.02-62.38,27.9-62.4,62.34-.02,34.45,27.9,62.38,62.34,62.4h18.28"/><path class="cls-3" d="m818.93,386.27h-25.37c-3.54,0-6.41-2.87-6.41-6.41s2.87-6.41,6.41-6.41h25.37c26.96.05,48.86-21.77,48.91-48.73.04-25.46-19.49-46.69-44.87-48.75-3.53-.26-6.18-3.33-5.92-6.86.03-.47.12-.93.25-1.38,8.1-29.75-9.45-60.44-39.21-68.54-13.13-3.57-27.1-2.23-39.31,3.77-2.99,1.45-6.6.36-8.3-2.5-28.43-46.9-89.49-61.88-136.4-33.46-29.43,17.83-47.52,49.63-47.83,84.04v3.84c.14,3.54-2.61,6.52-6.15,6.66-.09,0-.17,0-.26,0h-.26c-30.9-.67-56.49,23.85-57.16,54.75-.67,30.9,23.85,56.49,54.75,57.16.89.02,1.78.02,2.67,0h18.23c3.54,0,6.41,2.87,6.41,6.41s-2.87,6.41-6.41,6.41h-18.23c-37.98.06-68.83-30.68-68.89-68.66-.06-35.59,27.04-65.35,62.49-68.61,1.59-61.9,53.06-110.79,114.96-109.2,36.23.93,69.78,19.32,90.06,49.36,35.36-13.84,75.23,3.61,89.07,38.97,3.09,7.91,4.7,16.32,4.73,24.81,0,3.79-.32,7.57-.96,11.31,33.37,6.64,55.04,39.07,48.4,72.44-5.76,28.95-31.25,49.74-60.76,49.58Z"/><rect class="cls-2" x="582.42" y="251.73" width="186.73" height="192.21"/><path class="cls-3" d="m769.14,450.34h-186.7c-3.54,0-6.41-2.87-6.41-6.41v-192.21c0-3.54,2.87-6.41,6.41-6.41h186.7c3.54,0,6.41,2.87,6.41,6.41v192.21c0,3.54-2.87,6.41-6.41,6.41Zm-180.32-12.81h173.91v-179.39h-173.88l-.03,179.39Z"/><path class="cls-3" d="m611.73,472.76c-3.54,0-6.41-2.87-6.41-6.41v-22.42c0-3.54,2.87-6.41,6.41-6.41s6.41,2.87,6.41,6.41v22.42c0,3.54-2.87,6.41-6.41,6.41Z"/><path class="cls-3" d="m739.86,472.76c-3.54,0-6.41-2.87-6.41-6.41v-22.42c0-3.54,2.87-6.41,6.41-6.41s6.41,2.87,6.41,6.41v22.42c0,3.54-2.87,6.41-6.41,6.41Z"/><path class="cls-3" d="m768.7,322.2h-185.8c-3.54,0-6.41-2.87-6.41-6.41s2.87-6.41,6.41-6.41h185.8c3.54,0,6.41,2.87,6.41,6.41s-2.87,6.41-6.41,6.41Z"/><path class="cls-4" d="m768.7,386.27h-185.8c-3.54,0-6.41-2.87-6.41-6.41s2.87-6.41,6.41-6.41h185.8c3.54,0,6.41,2.87,6.41,6.41s-2.87,6.41-6.41,6.41Z"/><path class="cls-1" d="m611.73,341.42c-3.54,0-6.41,2.87-6.41,6.41s2.87,6.41,6.41,6.41,6.41-2.87,6.41-6.41-2.87-6.41-6.41-6.41Z"/><path class="cls-1" d="m611.73,277.35c-3.54,0-6.41,2.87-6.41,6.41s2.87,6.41,6.41,6.41,6.41-2.87,6.41-6.41-2.87-6.41-6.41-6.41Z"/><path class="cls-1" d="m611.73,405.49c-3.54,0-6.41,2.87-6.41,6.41s2.87,6.41,6.41,6.41,6.41-2.87,6.41-6.41-2.87-6.41-6.41-6.41Z"/></svg>